<mxfile host="app.diagrams.net" modified="2024-05-21T09:01:07.950Z" agent="Mozilla/5.0 (Windows NT 10.0; Win64; x64) AppleWebKit/537.36 (KHTML, like Gecko) Chrome/124.0.0.0 Safari/537.36" version="24.4.4" etag="4fxLBSFDYHAr5Tu9Ayi5" type="github">
  <diagram name="Page-1" id="xZIdA2Y306O18URR867c">
    <mxGraphModel>
      <root>
        <mxCell id="0" />
        <mxCell id="1" parent="0" />
      </root>
    </mxGraphModel>
  </diagram>
</mxfile>
